<svg xmlns="http://www.w3.org/2000/svg" width="15.358" height="15.17" viewBox="0 0 15.358 15.17"><defs><style>.a{fill:#fff;}</style></defs><path class="a" d="M1100.874,26.342a3.868,3.868,0,0,1-3.46-3.806c-.081-2.43-.085-4.865,0-7.293a3.95,3.95,0,0,1,3.913-3.884c2.47-.087,4.949-.092,7.419,0a3.968,3.968,0,0,1,3.905,3.983c.075,2.33.079,4.667,0,7a4.041,4.041,0,0,1-4.073,4.093c-1.185.057-2.375.009-3.562.009m.03-13.76c-1.129,0-2.26-.034-3.39.008a2.758,2.758,0,0,0-2.9,2.889q-.079,3.3,0,6.611a2.74,2.74,0,0,0,2.9,2.888q3.367.07,6.739,0a2.724,2.724,0,0,0,2.9-2.843q.091-3.346,0-6.7a2.742,2.742,0,0,0-2.893-2.849C1107.285,12.65,1106.168,12.682,1105.051,12.682Z" transform="translate(-1097.352 -11.292)"/><path class="a" d="M1103.716,21.483a3.91,3.91,0,1,1,3.957-3.919A3.936,3.936,0,0,1,1103.716,21.483Zm2.56-3.9a2.57,2.57,0,1,0-2.582,2.538A2.551,2.551,0,0,0,1106.276,17.585Z" transform="translate(-1096.03 -9.979)"/><path class="a" d="M1106.183,13.865a.91.91,0,1,1-.929-.9A.913.913,0,0,1,1106.183,13.865Z" transform="translate(-1093.472 -10.365)"/></svg>