<svg xmlns="http://www.w3.org/2000/svg" width="217.26" height="53.318" viewBox="0 0 217.26 53.318"><defs><style>.a,.c{fill:#fff;}.a,.b{fill-rule:evenodd;}.b{fill:#d90010;}.c{font-size:9px;font-family:FiraSans-Italic, Fira Sans;font-style:italic;}.d{letter-spacing:0.199em;}.e{letter-spacing:0.2em;}</style></defs><g transform="translate(-630.42 -374.418)"><path class="a" d="M630.42,412.872c8.575,5.151,25.085,3.35,25.221-9.634-.617-7.616-5.248-7.873-10.482-11.638-1.62-1.165-2.948-2.685-1.332-4.873,1.736-2.349,6.582-2.761,11.575-.537l2.522-6.445c-7.225-3.589-20.508-2.041-22.767,7.566-.779,4.362.658,7.159,3.053,9.281,1.894,1.678,4.179,2.665,6.259,4.053,2.614,1.744,4.424,3.905,1.616,6.841-2.754,2.031-8.243,1.644-13.03-.98l-2.636,6.367" transform="translate(0 -1.083)"/><path class="a" d="M678.729,409.208c7.548.034,13.761-.928,16.051-4.821a7.14,7.14,0,0,0,.937-3.381c.668-7.361-6.584-9.483-12.477-8.26-6.7,1.943-11.744,7.408-12.009,16.227.205,6.95,4.079,10.165,9.49,10.857a21.166,21.166,0,0,0,7.98-.546,22.309,22.309,0,0,0,3.8-1.407q-.293-2.87-.586-5.741a13.558,13.558,0,0,1-10.134,1.347,4.2,4.2,0,0,1-3.046-4.275m.728-5.693a8.115,8.115,0,0,1,1.909-3.633,5.36,5.36,0,0,1,6.03-1.364,1.822,1.822,0,0,1,1.083,1.363c.387,2.219-1.746,2.943-3.542,3.288a26.023,26.023,0,0,1-5.48.345" transform="translate(-12.432 -5.485)"/><path class="a" d="M711.776,392.919c-.686,8.81-2.685,17.695-4.292,26.451,2.586.047,5.171-.1,7.757-.056.97-5.317,1.889-10.82,3.281-14.625,2.009-4.018,4.89-4.95,8.088-4.765q.687-3.755,1.372-7.51c-3.321-.453-6.643.827-9.965,5.922.12-1.805.334-3.611.454-5.416h-6.694" transform="translate(-23.477 -5.456)"/><path class="a" d="M738.832,393.286l7.984.028,1.965,18.773,8.455-18.787,8.618.029-14.711,26.349-7.91-.088Z" transform="translate(-33.027 -5.748)"/><path class="a" d="M797.576,419.384H790.42l.313-5.269c-1.905,3.281-4.261,5.149-7.036,5.689a8.159,8.159,0,0,1-7.157-1.764c-3.462-3.161-3.825-9.506-.312-16.9,5.5-8.773,14.67-10.268,25.144-7.438-1.266,8.561-3.865,15.013-3.8,25.684m-4.92-20.774c-3.687-1.081-7.75.921-9.957,6.716-1.407,4.618-.72,6.747.624,7.727,1.654,1.206,3.475.494,4.813-.875a9.585,9.585,0,0,0,1.5-2.09A17.463,17.463,0,0,0,791.4,404.8q.627-3.095,1.253-6.191" transform="translate(-43.668 -5.478)"/><path class="a" d="M819.637,393.24h7.837l-4.924,26.341h-7.874Z" transform="translate(-56.132 -5.734)"/><path class="a" d="M827.317,384.992c-3.569-.223-4.825-3.511-3.059-6.431a4.346,4.346,0,0,1,5.491-1.522,3.418,3.418,0,0,1,1.987,2.755,4.336,4.336,0,0,1-2.935,4.9,6.186,6.186,0,0,1-1.483.3" transform="translate(-58.81 -0.669)"/><path class="a" d="M858.416,414.4h-7.03l.266-4.509a9.543,9.543,0,0,1-6.989,4.929,7.987,7.987,0,0,1-7.027-1.926c-3.462-3.161-4.173-9.444-.659-16.84,4.211-6.715,9.694-9.6,17.362-8.259a4.535,4.535,0,0,1,.661.17l2.168-11.834,7.832-.088c-2.311,12.049-5.7,26.037-6.583,38.356M853.771,394.2c-4.422-2.506-8.711.586-10.338,5.653-1.406,4.618-.4,7.242.945,8.222,1.654,1.205,3.926.535,5.265-.834a9.456,9.456,0,0,0,1.413-2.09,17.682,17.682,0,0,0,1.662-5.356c.417-2.065.636-3.53,1.053-5.595" transform="translate(-62.221 -0.496)"/><path class="b" d="M884.016,387.893h12.64l3.11-12.187c.166-.65.551-1.217,1.222-1.222l10.864-.066c.671,0,1.387.57,1.222,1.221l-3.111,12.254h12.56c.672,0,1.406.576,1.221,1.222l-3.1,10.806c-.184.645-.549,1.222-1.221,1.222H906.6l-3.1,12.2c-.161.635-.537,1.19-1.193,1.193l-10.931.035c-.672,0-1.386-.571-1.222-1.221l3.116-12.208H881.439c-.671,0-1.378-.568-1.221-1.222l2.6-10.835c.154-.638.537-1.193,1.193-1.193" transform="translate(-76.092 0)"/><path class="a" d="M896.607,401.32c.188-.884-.43-1.368-1.27-1.374l-11.653-.072,1.863-7.707a1.428,1.428,0,0,1,1.354-1.211l10.861.013a2.734,2.734,0,0,0,.91-.122,1.7,1.7,0,0,0,.447-.227.668.668,0,0,0,.326-.506l2.907-11.478a1.425,1.425,0,0,1,1.359-1.2l8,.1-3.341,13.3c-.007.032-.02.088-.03.143h.015l13.45.021-2.313,7.907a1.435,1.435,0,0,1-1.348,1.179l-12.2-.075-3.43,13.367-8.95-.059Z" transform="translate(-77.155 -0.919)"/><path class="a" d="M902.367,412.989l3.43-13.366,12.731.078c.377,0,.58-.325.686-.687l2.058-7.029-12.529-.02c-.73,0-.8-.432-.655-1l3.128-12.461-7.133-.086c-.376,0-.594.321-.686.686l-2.907,11.478a1.32,1.32,0,0,1-.589.894,2.351,2.351,0,0,1-.627.318,3.353,3.353,0,0,1-1.132.16l-10.861-.013c-.377,0-.6.32-.686.687l-1.661,6.865,10.788.066a1.8,1.8,0,0,1,1.933,2.217l-2.827,11.162Z" transform="translate(-77.535 -1.219)"/><path class="a" d="M937.177,379.648a2.9,2.9,0,0,1,1.407.366,2.652,2.652,0,0,1,1.059,1.052,2.863,2.863,0,0,1,.008,2.853,2.7,2.7,0,0,1-1.055,1.053,2.857,2.857,0,0,1-2.839,0,2.7,2.7,0,0,1-1.053-1.053,2.858,2.858,0,0,1,.008-2.853,2.652,2.652,0,0,1,1.058-1.052,2.9,2.9,0,0,1,1.408-.366m0,.559a2.324,2.324,0,0,0-1.129.293,2.131,2.131,0,0,0-.85.845,2.3,2.3,0,0,0-.008,2.3,2.163,2.163,0,0,0,.846.848,2.287,2.287,0,0,0,2.281,0,2.191,2.191,0,0,0,.846-.848,2.3,2.3,0,0,0-.005-2.3,2.132,2.132,0,0,0-.852-.845,2.34,2.34,0,0,0-1.13-.293m-1.293,3.817h.615v-1.242h.159a.676.676,0,0,1,.425.129,2,2,0,0,1,.424.624l.255.489h.758l-.357-.61c-.127-.216-.2-.339-.223-.368a1.466,1.466,0,0,0-.2-.232.755.755,0,0,0-.212-.114.975.975,0,0,0,.6-.289.8.8,0,0,0,.214-.559.847.847,0,0,0-.114-.435.756.756,0,0,0-.282-.29,1.175,1.175,0,0,0-.475-.121q-.1-.007-.967-.008h-.615Zm.615-1.719h.249a3.125,3.125,0,0,0,.661-.04.392.392,0,0,0,.2-.143.382.382,0,0,0,.075-.233.364.364,0,0,0-.073-.225.393.393,0,0,0-.207-.141,2.947,2.947,0,0,0-.659-.042H936.5Z" transform="translate(-92.582 -1.593)"/><text class="c" transform="translate(729.49 425.736)"><tspan class="d" x="0" y="0">Ph</tspan><tspan class="e" y="0">a</tspan><tspan class="d" y="0">r</tspan><tspan class="e" y="0">mac</tspan><tspan y="0">y</tspan></text></g></svg>