<svg xmlns="http://www.w3.org/2000/svg" width="154" height="39.782" viewBox="0 0 154 39.782"><defs><style>.a,.d{fill:#0065ab;}.a,.b,.c{fill-rule:evenodd;}.b{fill:#d90010;}.c{fill:#fff;}</style></defs><g transform="translate(-142.327 -379.089)"><path class="a" d="M142.327,407.382c6.078,3.651,17.78,2.375,17.878-6.828-.437-5.4-3.72-5.581-7.43-8.25-1.149-.826-2.09-1.9-.944-3.454,1.231-1.665,4.666-1.957,8.2-.38l1.788-4.568c-5.122-2.544-14.536-1.447-16.138,5.363a6.526,6.526,0,0,0,2.164,6.579,38.2,38.2,0,0,0,4.436,2.872c1.853,1.237,3.136,2.768,1.145,4.849-1.952,1.44-5.843,1.165-9.235-.695q-.934,2.256-1.868,4.513" transform="translate(0 -1.804)"/><path class="a" d="M188.452,408.991c5.35.025,9.754-.657,11.377-3.417a5.066,5.066,0,0,0,.664-2.4c.473-5.218-4.667-6.722-8.844-5.855-4.752,1.377-8.324,5.251-8.512,11.5.145,4.926,2.891,7.205,6.726,7.7a15.013,15.013,0,0,0,5.656-.387,15.809,15.809,0,0,0,2.69-1q-.208-2.035-.415-4.07a9.611,9.611,0,0,1-7.183.955,2.975,2.975,0,0,1-2.159-3.031m.516-4.035a5.754,5.754,0,0,1,1.353-2.575,3.8,3.8,0,0,1,4.274-.966,1.292,1.292,0,0,1,.768.966c.274,1.573-1.238,2.086-2.511,2.331a18.447,18.447,0,0,1-3.884.245" transform="translate(-20.695 -9.13)"/><path class="a" d="M222.434,397.419c-.486,6.244-1.9,12.542-3.043,18.749,1.833.034,3.666-.073,5.5-.04a71.209,71.209,0,0,1,2.326-10.366,5.46,5.46,0,0,1,5.733-3.378q.487-2.661.972-5.324c-2.355-.321-4.709.587-7.064,4.2.085-1.28.237-2.56.322-3.839h-4.745" transform="translate(-39.08 -9.083)"/><path class="a" d="M250.739,397.957l5.659.02,1.393,13.307,5.993-13.317,6.109.021-10.427,18.677-5.607-.063Z" transform="translate(-54.977 -9.568)"/><path class="a" d="M302.549,416.2h-5.073l.222-3.735c-1.351,2.325-3.02,3.65-4.988,4.032a5.781,5.781,0,0,1-5.073-1.25c-2.454-2.241-2.711-6.738-.221-11.98,3.9-6.219,10.4-7.279,17.823-5.272-.9,6.068-2.74,10.641-2.69,18.2m-3.487-14.725c-2.613-.766-5.494.653-7.058,4.761-1,3.273-.51,4.783.443,5.477,1.172.854,2.464.35,3.412-.621a6.816,6.816,0,0,0,1.064-1.482,12.371,12.371,0,0,0,1.251-3.747q.444-2.194.888-4.389" transform="translate(-72.69 -9.12)"/><path class="a" d="M330.1,397.912h5.555l-3.49,18.671h-5.581Z" transform="translate(-93.439 -9.545)"/><path class="a" d="M338.1,387.225c-2.53-.158-3.42-2.489-2.168-4.559a3.081,3.081,0,0,1,3.892-1.078,2.422,2.422,0,0,1,1.408,1.952,3.073,3.073,0,0,1-2.08,3.475,4.36,4.36,0,0,1-1.051.21" transform="translate(-97.896 -1.114)"/><path class="a" d="M363.408,407.9h-4.983l.188-3.2a6.762,6.762,0,0,1-4.954,3.494,5.659,5.659,0,0,1-4.981-1.365c-2.454-2.241-2.958-6.694-.467-11.936,2.985-4.76,6.871-6.8,12.307-5.855a3.209,3.209,0,0,1,.468.12l1.536-8.387,5.552-.063c-1.638,8.541-4.043,18.456-4.666,27.188m-3.293-14.322c-3.134-1.776-6.174.415-7.328,4.007-1,3.273-.282,5.133.67,5.828a2.933,2.933,0,0,0,3.732-.591,6.7,6.7,0,0,0,1-1.482,12.537,12.537,0,0,0,1.178-3.8c.3-1.463.451-2.5.747-3.966" transform="translate(-103.575 -0.825)"/><path class="b" d="M394.811,388.641h8.96l2.2-8.638c.117-.461.39-.863.866-.866l7.7-.047c.476,0,.983.4.866.866l-2.205,8.686h8.9c.476,0,1,.408.866.866l-2.2,7.66c-.131.457-.389.866-.866.866h-9.089l-2.2,8.649c-.115.45-.38.843-.845.845l-7.748.025c-.476,0-.983-.405-.866-.866l2.209-8.653h-8.388c-.476,0-.977-.4-.866-.866l1.846-7.68c.109-.452.38-.845.845-.845" transform="translate(-126.664 0)"/><path class="c" d="M404.751,399.037c.134-.626-.3-.971-.9-.974l-8.26-.05,1.32-5.463a1.012,1.012,0,0,1,.96-.858l7.7.009a1.939,1.939,0,0,0,.645-.087,1.183,1.183,0,0,0,.317-.16.474.474,0,0,0,.231-.358l2.06-8.137a1.011,1.011,0,0,1,.964-.853l5.671.068L413.09,391.6c0,.023-.014.062-.021.1h.011l9.533.015-1.64,5.6a1.017,1.017,0,0,1-.956.836l-8.645-.053-2.431,9.475-6.344-.042Z" transform="translate(-128.433 -1.529)"/><path class="a" d="M409.2,407.6l2.431-9.474,9.024.055c.267,0,.412-.23.486-.486l1.458-4.983-8.881-.014c-.517,0-.567-.306-.464-.707l2.217-8.833-5.056-.061c-.267,0-.421.227-.486.486l-2.061,8.137a.936.936,0,0,1-.418.634,1.668,1.668,0,0,1-.444.225,2.391,2.391,0,0,1-.8.113l-7.7-.009c-.267,0-.423.227-.486.487l-1.177,4.866,7.647.046a1.273,1.273,0,0,1,1.37,1.572l-2,7.911Z" transform="translate(-129.067 -2.03)"/><path class="a" d="M448.253,384.319a2.054,2.054,0,0,1,1,.26,1.88,1.88,0,0,1,.751.745,2.03,2.03,0,0,1,.005,2.023,1.914,1.914,0,0,1-.748.747,2.028,2.028,0,0,1-2.013,0,1.909,1.909,0,0,1-.747-.747,2.027,2.027,0,0,1,.005-2.023,1.878,1.878,0,0,1,.75-.745,2.059,2.059,0,0,1,1-.26m0,.4a1.648,1.648,0,0,0-.8.208,1.509,1.509,0,0,0-.6.6,1.63,1.63,0,0,0-.005,1.629,1.532,1.532,0,0,0,.6.6,1.618,1.618,0,0,0,1.617,0,1.552,1.552,0,0,0,.6-.6,1.628,1.628,0,0,0,0-1.629,1.51,1.51,0,0,0-.6-.6,1.659,1.659,0,0,0-.8-.208m-.916,2.706h.436v-.881h.112a.48.48,0,0,1,.3.091,1.43,1.43,0,0,1,.3.442l.18.348h.537l-.253-.432q-.135-.23-.158-.261a1.025,1.025,0,0,0-.145-.165.549.549,0,0,0-.15-.08.691.691,0,0,0,.426-.205.564.564,0,0,0,.151-.4.6.6,0,0,0-.08-.308.534.534,0,0,0-.2-.205.839.839,0,0,0-.337-.086q-.074,0-.686,0h-.436Zm.436-1.218h.176a2.222,2.222,0,0,0,.469-.029.281.281,0,0,0,.143-.1.269.269,0,0,0,.053-.165.259.259,0,0,0-.052-.16.282.282,0,0,0-.146-.1,2.119,2.119,0,0,0-.467-.03h-.176Z" transform="translate(-154.114 -2.652)"/><g transform="translate(213.041 411.277)"><path class="d" d="M289.363,445.7a1.248,1.248,0,0,1,.494,1.079,2.126,2.126,0,0,1-.233,1,1.742,1.742,0,0,1-.759.731,2.851,2.851,0,0,1-1.347.28h-.7l-.277,2H285.8l.766-5.444h1.4A2.355,2.355,0,0,1,289.363,445.7Zm-.64,2.094a1.5,1.5,0,0,0,.345-1.015.731.731,0,0,0-.3-.656,1.565,1.565,0,0,0-.866-.2h-.687l-.316,2.268h.632A1.5,1.5,0,0,0,288.722,447.793Z" transform="translate(-285.795 -444.874)"/><path class="d" d="M301.427,446.322a1.054,1.054,0,0,1,.269.766,1.756,1.756,0,0,1-.016.268l-.419,2.948h-.719l.411-2.908q.016-.174.016-.237a.543.543,0,0,0-.115-.391.433.433,0,0,0-.32-.115,1.046,1.046,0,0,0-.723.324,3.466,3.466,0,0,0-.628.829l-.34,2.5h-.719l.822-5.832.728-.079-.364,2.529a1.66,1.66,0,0,1,1.375-.877A.987.987,0,0,1,301.427,446.322Z" transform="translate(-292.047 -444.394)"/><path class="d" d="M313.476,447.831a3.673,3.673,0,0,1,.723.269l-.426,2.955a1.729,1.729,0,0,0-.016.173.4.4,0,0,0,.059.229.419.419,0,0,0,.21.142l-.206.5a.9.9,0,0,1-.514-.206.76.76,0,0,1-.221-.49,2.025,2.025,0,0,1-.569.51,1.305,1.305,0,0,1-.671.186,1.182,1.182,0,0,1-.98-.435,1.8,1.8,0,0,1-.347-1.161,3.639,3.639,0,0,1,.233-1.265,2.55,2.55,0,0,1,.731-1.063,1.851,1.851,0,0,1,1.256-.431A3.086,3.086,0,0,1,313.476,447.831Zm-1.549.826a2.027,2.027,0,0,0-.482.837,3.43,3.43,0,0,0-.154,1.015,1.294,1.294,0,0,0,.181.763.607.607,0,0,0,.522.249.926.926,0,0,0,.58-.2,2.9,2.9,0,0,0,.534-.569l.324-2.3a1.626,1.626,0,0,0-.32-.1,1.836,1.836,0,0,0-.359-.032A1.106,1.106,0,0,0,311.927,448.657Z" transform="translate(-298.332 -446.093)"/><path class="d" d="M325.739,447.8l-.214.7a1.326,1.326,0,0,0-.34-.04.868.868,0,0,0-.676.336,3.1,3.1,0,0,0-.518,1l-.316,2.2h-.719l.585-4.164h.616l-.047.854a1.911,1.911,0,0,1,.541-.711,1.082,1.082,0,0,1,.667-.238A1.753,1.753,0,0,1,325.739,447.8Z" transform="translate(-304.64 -446.093)"/><path class="d" d="M337.7,448.024a1.1,1.1,0,0,1,.249.755,1.6,1.6,0,0,1-.016.261L337.511,452h-.719l.411-2.908a1.569,1.569,0,0,0,.016-.245.513.513,0,0,0-.119-.391.479.479,0,0,0-.332-.107.828.828,0,0,0-.592.312,4.406,4.406,0,0,0-.585.826L335.235,452h-.719l.411-2.908a1.569,1.569,0,0,0,.016-.245.515.515,0,0,0-.119-.391.479.479,0,0,0-.332-.107.824.824,0,0,0-.592.316,4.387,4.387,0,0,0-.585.837l-.34,2.5h-.719l.585-4.164h.616l-.063.8a2.712,2.712,0,0,1,.636-.664,1.233,1.233,0,0,1,.724-.23.885.885,0,0,1,.6.221.973.973,0,0,1,.309.625,2.558,2.558,0,0,1,.652-.632,1.309,1.309,0,0,1,.715-.214A.851.851,0,0,1,337.7,448.024Z" transform="translate(-309.356 -446.093)"/><path class="d" d="M351.9,447.831a3.665,3.665,0,0,1,.723.269l-.426,2.955a1.591,1.591,0,0,0-.016.173.4.4,0,0,0,.059.229.417.417,0,0,0,.209.142l-.206.5a.9.9,0,0,1-.514-.206.763.763,0,0,1-.221-.49,2.023,2.023,0,0,1-.569.51,1.307,1.307,0,0,1-.671.186,1.184,1.184,0,0,1-.98-.435,1.806,1.806,0,0,1-.347-1.161,3.639,3.639,0,0,1,.233-1.265,2.549,2.549,0,0,1,.731-1.063,1.853,1.853,0,0,1,1.256-.431A3.08,3.08,0,0,1,351.9,447.831Zm-1.549.826a2.02,2.02,0,0,0-.482.837,3.43,3.43,0,0,0-.154,1.015,1.294,1.294,0,0,0,.181.763.606.606,0,0,0,.521.249.928.928,0,0,0,.581-.2,2.9,2.9,0,0,0,.534-.569l.324-2.3a1.611,1.611,0,0,0-.32-.1,1.838,1.838,0,0,0-.36-.032A1.106,1.106,0,0,0,350.356,448.657Z" transform="translate(-317.819 -446.093)"/><path class="d" d="M364.626,448.2l-.387.45a1.248,1.248,0,0,0-.38-.237,1.229,1.229,0,0,0-.434-.071,1.033,1.033,0,0,0-.794.328,1.9,1.9,0,0,0-.435.81,3.72,3.72,0,0,0-.13.972q0,1.028.845,1.027a1.39,1.39,0,0,0,.478-.079,2.689,2.689,0,0,0,.486-.245l.292.506a2.2,2.2,0,0,1-1.3.435,1.477,1.477,0,0,1-1.15-.447,1.79,1.79,0,0,1-.407-1.252,3.556,3.556,0,0,1,.221-1.213,2.447,2.447,0,0,1,.7-1.027,1.747,1.747,0,0,1,1.193-.415A1.686,1.686,0,0,1,364.626,448.2Z" transform="translate(-324.088 -446.093)"/><path class="d" d="M373.306,452.141a3.051,3.051,0,0,1-.838,1.138,2.473,2.473,0,0,1-1.335.506l-.032-.569a2.42,2.42,0,0,0,.692-.206,1.457,1.457,0,0,0,.446-.344,3.087,3.087,0,0,0,.372-.565h-.269l-.8-4.164h.759l.585,3.611,1.6-3.611h.75Z" transform="translate(-329.055 -446.191)"/></g></g></svg>