<svg xmlns="http://www.w3.org/2000/svg" width="17.313" height="14.073" viewBox="0 0 17.313 14.073"><defs><style>.a{fill:#fff;}</style></defs><path class="a" d="M-350.215,31.534l.164,1.06h8.471c.145,0,.34-.051.425.023.2.172.468.4.485.616.014.186-.272.411-.456.587-.062.059-.216.027-.329.027H-351.1c-.128-.765-.261-1.52-.381-2.276q-.5-3.15-.989-6.3a.457.457,0,0,0-.419-.435c-.975-.211-1.944-.455-2.915-.687-.311-.074-.591-.184-.641-.559-.067-.5.32-.8.893-.664,1.113.26,2.215.575,3.337.783.6.112.9.347.909.972a9.242,9.242,0,0,0,.186,1.219H-340.2q1.445,0,.93,1.361-.664,1.763-1.334,3.523c-.239.63-.407.749-1.071.749h-8.542Z" transform="translate(356.447 -22.893)"/><path class="a" d="M-289.559,143.2a1.268,1.268,0,0,1-1.306,1.266,1.27,1.27,0,0,1-1.268-1.306,1.27,1.27,0,0,1,1.283-1.242A1.272,1.272,0,0,1-289.559,143.2Z" transform="translate(298.361 -130.392)"/><path class="a" d="M-226.624,143.245a1.242,1.242,0,0,1-1.338,1.218,1.256,1.256,0,0,1-1.214-1.3,1.258,1.258,0,0,1,1.321-1.244A1.245,1.245,0,0,1-226.624,143.245Z" transform="translate(241.499 -130.392)"/></svg>