<svg xmlns="http://www.w3.org/2000/svg" width="6.958" height="14.99" viewBox="0 0 6.958 14.99"><defs><style>.a{fill:#fff;}</style></defs><path class="a" d="M1073.646,18.855h-1.468V16.2h1.462c0-.491-.028-.955.008-1.414a7.348,7.348,0,0,1,.223-1.536,2.513,2.513,0,0,1,2.36-1.858c.92-.079,1.849-.03,2.774-.036a.313.313,0,0,1,.079.026v2.538c-.176,0-.346,0-.519,0-.4,0-.808-.006-1.21.02a.544.544,0,0,0-.576.551c-.026.561-.006,1.123-.006,1.709h2.363l-.27,2.641h-2.1v7.492h-3.119Z" transform="translate(-1072.178 -11.35)"/></svg>