<svg xmlns="http://www.w3.org/2000/svg" width="108.012" height="10" viewBox="0 0 108.012 10"><defs><style>.a{fill:#c9c9c9;}.b{fill:#959595;font-size:8px;font-family:FiraSans-Regular, Fira Sans;}</style></defs><g transform="translate(0 0)"><path class="a" d="M10.069,4.148a.535.535,0,0,0-.462-.369L6.693,3.515,5.541.818a.537.537,0,0,0-.987,0L3.4,3.515.488,3.779a.537.537,0,0,0-.3.939l2.2,1.932L1.736,9.51a.536.536,0,0,0,.8.58l2.513-1.5,2.512,1.5a.536.536,0,0,0,.8-.58L7.709,6.65l2.2-1.931A.537.537,0,0,0,10.069,4.148Zm0,0" transform="translate(0 -0.492)"/><path class="a" d="M10.069,4.148a.535.535,0,0,0-.462-.369L6.693,3.515,5.541.818a.537.537,0,0,0-.987,0L3.4,3.515.488,3.779a.537.537,0,0,0-.3.939l2.2,1.932L1.736,9.51a.536.536,0,0,0,.8.58l2.513-1.5,2.512,1.5a.536.536,0,0,0,.8-.58L7.709,6.65l2.2-1.931A.537.537,0,0,0,10.069,4.148Zm0,0" transform="translate(12.423 -0.492)"/><path class="a" d="M10.069,4.148a.535.535,0,0,0-.462-.369L6.693,3.515,5.541.818a.537.537,0,0,0-.987,0L3.4,3.515.488,3.779a.537.537,0,0,0-.3.939l2.2,1.932L1.736,9.51a.536.536,0,0,0,.8.58l2.513-1.5,2.512,1.5a.536.536,0,0,0,.8-.58L7.709,6.65l2.2-1.931A.537.537,0,0,0,10.069,4.148Zm0,0" transform="translate(24.845 -0.492)"/><path class="a" d="M10.069,4.148a.535.535,0,0,0-.462-.369L6.693,3.515,5.541.818a.537.537,0,0,0-.987,0L3.4,3.515.488,3.779a.537.537,0,0,0-.3.939l2.2,1.932L1.736,9.51a.536.536,0,0,0,.8.58l2.513-1.5,2.512,1.5a.536.536,0,0,0,.8-.58L7.709,6.65l2.2-1.931A.537.537,0,0,0,10.069,4.148Zm0,0" transform="translate(37.268 -0.492)"/><path class="a" d="M10.069,4.148a.535.535,0,0,0-.462-.369L6.693,3.515,5.541.818a.537.537,0,0,0-.987,0L3.4,3.515.488,3.779a.537.537,0,0,0-.3.939l2.2,1.932L1.736,9.51a.536.536,0,0,0,.8.58l2.513-1.5,2.512,1.5a.536.536,0,0,0,.8-.58L7.709,6.65l2.2-1.931A.537.537,0,0,0,10.069,4.148Zm0,0" transform="translate(49.69 -0.492)"/></g><text class="b" transform="translate(72.012 8)"><tspan x="0" y="0">0 Reviews</tspan></text></svg>