<svg xmlns="http://www.w3.org/2000/svg" width="60" height="60.009" viewBox="0 0 60 60.009"><defs><style>.a{fill:#0065ab;}</style></defs><g transform="translate(-2 -1.991)"><path class="a" d="M24,5a3,3,0,1,0,3,3A3,3,0,0,0,24,5Zm0,4a1,1,0,1,1,1-1A1,1,0,0,1,24,9Z"/><path class="a" d="M11,33h4v2H11Z"/><path class="a" d="M17,33H32v2H17Z"/><path class="a" d="M11,39h4v2H11Z"/><path class="a" d="M11,45h4v2H11Z"/><path class="a" d="M11,51h4v2H11Z"/><path class="a" d="M61,35H60a15.113,15.113,0,0,1-9-3l-2.4-1.8a.99.99,0,0,0-1.2,0L46,31.25V11a3.009,3.009,0,0,0-3-3H34.82A3.01,3.01,0,0,0,32,6H29.66A6,6,0,0,0,18.34,6H16a3.01,3.01,0,0,0-2.82,2H5a3.009,3.009,0,0,0-3,3V59a3.009,3.009,0,0,0,3,3H43a3.016,3.016,0,0,0,2.35-1.15l2.22,1.05a.975.975,0,0,0,.86,0l8.78-4.17A8.961,8.961,0,0,0,62,49.78V36a1,1,0,0,0-1-1ZM35,10h8a1,1,0,0,1,1,1V32.69a15.237,15.237,0,0,1-2,1.05V13a1,1,0,0,0-1-1H35ZM15,9a1,1,0,0,1,1-1h3.1a.988.988,0,0,0,.98-.8,4,4,0,0,1,7.84,0,.988.988,0,0,0,.98.8H32a1,1,0,0,1,1,1v4H15Zm-1,6H34a1,1,0,0,0,1-1h5V34.44A15.03,15.03,0,0,1,36,35H35a1,1,0,0,0-1,1v3H17v2H34v4H17v2H34v2.78A9.867,9.867,0,0,0,34.08,51H17v2H34.61a9.027,9.027,0,0,0,1.91,3H8V14h5a1,1,0,0,0,1,1ZM43,60H5a1,1,0,0,1-1-1V11a1,1,0,0,1,1-1h8v2H7a1,1,0,0,0-1,1V57a1,1,0,0,0,1,1H39.36l4.02,1.91A1.007,1.007,0,0,1,43,60ZM60,49.78a6.953,6.953,0,0,1-3.69,6.16L48,59.89l-8.29-3.94A6.975,6.975,0,0,1,36,49.78V37a17.1,17.1,0,0,0,10.2-3.4L48,32.25l1.8,1.35A17.1,17.1,0,0,0,60,37Z"/><path class="a" d="M30,21H27V18a1,1,0,0,0-1-1H22a1,1,0,0,0-1,1v3H18a1,1,0,0,0-1,1v4a1,1,0,0,0,1,1h3v3a1,1,0,0,0,1,1h4a1,1,0,0,0,1-1V27h3a1,1,0,0,0,1-1V22A1,1,0,0,0,30,21Zm-1,4H26a1,1,0,0,0-1,1v3H23V26a1,1,0,0,0-1-1H19V23h3a1,1,0,0,0,1-1V19h2v3a1,1,0,0,0,1,1h3Z"/><path class="a" d="M57.15,38.78A19.042,19.042,0,0,1,48.6,35.2a.99.99,0,0,0-1.2,0,19.042,19.042,0,0,1-8.55,3.58,1.008,1.008,0,0,0-.85.99V49.78a4.994,4.994,0,0,0,2.58,4.37l.06.03,6.93,3.29a.975.975,0,0,0,.86,0l6.99-3.32A5.006,5.006,0,0,0,58,49.78V39.77a1.008,1.008,0,0,0-.85-.99ZM56,49.78a2.959,2.959,0,0,1-1.5,2.59L48,55.46l-6.48-3.07A3,3,0,0,1,40,49.78V40.61a21.108,21.108,0,0,0,8-3.38,21.108,21.108,0,0,0,8,3.38Z"/><path class="a" d="M43.707,47.293l-1.414,1.414,3,3a1,1,0,0,0,1.414,0l8-8-1.414-1.414L46,49.586Z"/></g></svg>