<svg xmlns="http://www.w3.org/2000/svg" width="58.224" height="55.544" viewBox="0 0 58.224 55.544"><defs><style>.a{fill:#0065ab;stroke:#0065ab;}</style></defs><g transform="translate(0.501 -2.496)"><path class="a" d="M73.172,25.41,54.059,6.3A11.273,11.273,0,1,0,38.116,22.241L57.229,41.355A11.274,11.274,0,0,0,73.172,25.412ZM36.379,14.269A9.712,9.712,0,0,1,52.953,7.4l9,9L48.225,30.138l-9-9a9.644,9.644,0,0,1-2.844-6.865ZM72.066,40.247a9.722,9.722,0,0,1-13.731,0l-9-9,13.73-13.731,9,9A9.722,9.722,0,0,1,72.066,40.247Z" transform="translate(-19.251 0)"/><path class="a" d="M57.638,17.668a.782.782,0,1,0,1.106-1.106,6,6,0,0,0-8.478,0,.782.782,0,1,0,1.106,1.107A4.436,4.436,0,0,1,57.638,17.668Z" transform="translate(-27.668 -6.532)"/><path class="a" d="M13.23,65.816a13.23,13.23,0,1,0,13.23,13.23,13.23,13.23,0,0,0-13.23-13.23Zm0,24.9A11.666,11.666,0,1,1,24.895,79.046,11.666,11.666,0,0,1,13.23,90.712Z" transform="translate(0 -34.736)"/><path class="a" d="M26.822,82.077,16.261,92.638a.782.782,0,1,0,1.106,1.106L27.929,83.183a.782.782,0,0,0-1.106-1.106Z" transform="translate(-8.865 -43.6)"/></g></svg>