<svg xmlns="http://www.w3.org/2000/svg" width="18.862" height="15.089" viewBox="0 0 18.862 15.089"><defs><style>.a{fill:#0065ab;fill-rule:evenodd;}</style></defs><path class="a" d="M3.251,6.621H17.9a.922.922,0,1,1-.024,1.839H3.483c-.078,0-.156.006-.288.012.093.1.15.176.214.24q2.357,2.357,4.716,4.712a.994.994,0,0,1,.334.763.837.837,0,0,1-.5.8.916.916,0,0,1-.982-.09,1.678,1.678,0,0,1-.179-.164L.354,8.277a.943.943,0,0,1,0-1.473Q3.586,3.567,6.816.329A.973.973,0,0,1,7.843.047a.918.918,0,0,1,.429,1.448,2.273,2.273,0,0,1-.182.194L3.407,6.369c-.061.061-.119.126-.179.189l.023.062" transform="translate(18.862 15.089) rotate(180)"/></svg>