<svg xmlns="http://www.w3.org/2000/svg" width="14.922" height="15.131" viewBox="0 0 14.922 15.131"><defs><style>.a{fill:#1c262f;}</style></defs><path class="a" d="M951.253,25.362h12.763c-.071-.391-.113-.773-.21-1.141a6.569,6.569,0,0,0-3.753-4.51.309.309,0,0,0-.323.017,4.232,4.232,0,0,1-6.333-3.253,4.453,4.453,0,0,1,3.765-5.088,4.308,4.308,0,0,1,4.681,3.826,4.54,4.54,0,0,1-.887,3.414c-.047.063-.1.125-.157.2.121.064.228.119.333.181a7.766,7.766,0,0,1,3.876,5.811,8.221,8.221,0,0,1,.074,1.012c.015.441-.2.659-.613.661h-13.66c-.464,0-.662-.2-.648-.7a7.956,7.956,0,0,1,2.516-5.744.511.511,0,0,1,.8.017.589.589,0,0,1-.091.822,6.845,6.845,0,0,0-2.116,4.263C951.257,25.22,951.257,25.284,951.253,25.362Zm9.567-9.52a3.2,3.2,0,1,0-3.2,3.363A3.289,3.289,0,0,0,960.819,15.843Z" transform="translate(-950.16 -11.363)"/></svg>