<svg xmlns="http://www.w3.org/2000/svg" width="32.658" height="32.588" viewBox="0 0 32.658 32.588"><defs><style>.a{fill:#fff;}</style></defs><g transform="translate(0 2.484)"><g transform="translate(0 -2.484)"><rect class="a" width="3.273" height="1.091" transform="translate(23.455 21.748)"/><rect class="a" width="3.273" height="1.091" transform="translate(19.091 21.748)"/><rect class="a" width="3.273" height="1.091" transform="translate(14.727 21.748)"/><path class="a" d="M32.175,11.793,21.382,1a1.629,1.629,0,0,0-1.16-.483h0A1.614,1.614,0,0,0,19.067,1L7.618,12.446H1.636A1.636,1.636,0,0,0,0,14.083V29.355a1.636,1.636,0,0,0,1.636,1.636H9.718l1.628,1.629a1.629,1.629,0,0,0,1.16.483h0a1.615,1.615,0,0,0,1.151-.483l1.631-1.629H27.818a1.636,1.636,0,0,0,1.636-1.636V16.828l2.717-2.717a1.628,1.628,0,0,0,0-2.318ZM25.236,6.4l-6.049,6.049H14.555L22.92,4.081Zm-5.4-4.629a.538.538,0,0,1,.761-.009l.009.009,1.54,1.542-9.137,9.136H9.16ZM12.888,31.852a.531.531,0,0,1-.382.164.545.545,0,0,1-.388-.164l-.857-.86h2.488Zm15.476-2.5a.545.545,0,0,1-.545.545H1.636a.545.545,0,0,1-.545-.545V21.719H28.364Zm0-8.727H1.091V17.355H28.364Zm0-4.364H1.091V14.083a.545.545,0,0,1,.545-.545H27.818a.545.545,0,0,1,.545.545Zm3.04-2.927h0l-1.949,1.949v-1.2a1.636,1.636,0,0,0-1.636-1.636H20.727l5.278-5.278,5.4,5.4a.545.545,0,0,1,.164.39A.535.535,0,0,1,31.4,13.337Z" transform="translate(0 -0.516)"/><path class="a" d="M27.4,363.323a2.184,2.184,0,0,0,.223-.223,2.163,2.163,0,0,0,2.871.37,2.218,2.218,0,0,0,.947-1.8,2.182,2.182,0,0,0-2.182-2.182,1.651,1.651,0,0,0-.323.027l-.014,0h-.016a2.153,2.153,0,0,0-1.283.724,2.182,2.182,0,1,0-.223,3.077Zm1.721-2.731a.658.658,0,0,1,.138-.011,1.091,1.091,0,0,1,1.091,1.091,1.07,1.07,0,0,1-.214.64c-.02.027-.035.055-.057.082,0,0-.009.007-.014.011a1.084,1.084,0,1,1-.944-1.813Zm-3.135-.011a1.091,1.091,0,1,1-1.091,1.091A1.091,1.091,0,0,1,25.991,360.581Z" transform="translate(-22.173 -335.014)"/></g></g></svg>