<svg xmlns="http://www.w3.org/2000/svg" width="35.585" height="35.585" viewBox="0 0 35.585 35.585"><defs><style>.a{fill:#fff;}</style></defs><g transform="translate(0 -0.501)"><path class="a" d="M35.225,8.2,21.366.587a.7.7,0,0,0-.669,0L15.473,3.455a.7.7,0,0,0-.3.164L6.838,8.2a.7.7,0,0,0-.361.609v9.2A9.259,9.259,0,0,0,.939,30.9a.7.7,0,0,0,1.249-.61A7.858,7.858,0,1,1,5.8,33.9a.695.695,0,0,0-.61,1.249A9.265,9.265,0,0,0,17.7,30.6L20.7,32.246a.695.695,0,0,0,.669,0l13.859-7.61a.7.7,0,0,0,.361-.609V19.2a.7.7,0,1,0-1.39,0v4.419L21.729,30.461V16.826l4.114-2.259v3.582a.7.7,0,0,0,1.03.609l2.97-1.635a.694.694,0,0,0,.36-.609V12.173L34.2,9.981v3.656a.7.7,0,1,0,1.39,0V8.806A.7.7,0,0,0,35.225,8.2ZM21.031,1.989,33.447,8.806,29.53,10.957,17.115,4.139Zm0,13.635L8.616,8.806l4.06-2.23,12.415,6.817Zm5.5-3.022L14.12,5.784l1.551-.852,12.415,6.817ZM15.789,20.3A9.187,9.187,0,0,0,9.25,17.589a9.375,9.375,0,0,0-1.382.1V9.981l12.471,6.848V30.463l-2.165-1.189a9.293,9.293,0,0,0,.323-2.438A9.187,9.187,0,0,0,15.789,20.3ZM28.813,16.1l-1.58.87V13.8l1.58-.867Zm0,0" transform="translate(0)"/><path class="a" d="M492.7,219.441a.7.7,0,1,0,.491.2A.7.7,0,0,0,492.7,219.441Zm0,0" transform="translate(-457.804 -203.724)"/><path class="a" d="M67.823,326.147a.695.695,0,0,0,.491-1.186l-.481-.482h4.108a1.807,1.807,0,0,1,0,3.614H69.507a.695.695,0,1,0,0,1.39h2.434a3.2,3.2,0,1,0,0-6.394H67.833l.481-.482a.7.7,0,0,0-.983-.983l-1.668,1.668a.7.7,0,0,0,0,.983l1.668,1.668A.693.693,0,0,0,67.823,326.147Zm0,0" transform="translate(-60.91 -298.615)"/><path class="a" d="M36.763,457.823a.692.692,0,0,1-.531-.247v0a.694.694,0,1,1,.532.249Zm0,0" transform="translate(-33.561 -424.243)"/></g></svg>