<svg xmlns="http://www.w3.org/2000/svg" width="61.955" height="67.8" viewBox="0 0 61.955 67.8"><defs><style>.a{fill:#d90010;stroke:#d90010;stroke-width:0.3px;}</style></defs><g transform="translate(-22.85 0.15)"><g transform="translate(23 16.315)"><path class="a" d="M72.528,149.258a5.649,5.649,0,0,0-9.6,3.372l-9.561-9.561a19.041,19.041,0,0,0-13.925-5.581,16.91,16.91,0,0,1,.635-2.566,1.061,1.061,0,0,0-.251-1.084L29.668,123.682a1.057,1.057,0,0,0-1.494,1.494l9.707,9.707a19.964,19.964,0,0,0-.6,2.777,19.964,19.964,0,0,0-2.777.6L24.8,128.549a1.057,1.057,0,0,0-1.494,1.494L33.464,140.2a1.055,1.055,0,0,0,1.084.251,16.911,16.911,0,0,1,2.566-.635,19.05,19.05,0,0,0,5.567,13.925l9.561,9.561a5.646,5.646,0,1,0,5.3,2.433l1.428-1.428a1.057,1.057,0,0,0-1.494-1.494l-1.362,1.349L44.189,152.234a16.717,16.717,0,0,1-4.959-12.616,16.9,16.9,0,0,1,12.642,4.946L63.8,156.492l-1.362,1.362a1.057,1.057,0,0,0,1.494,1.494l1.428-1.428a5.647,5.647,0,0,0,7.168-8.662ZM56.381,168.923a3.518,3.518,0,1,1-3.518-3.518A3.516,3.516,0,0,1,56.381,168.923Zm14.653-13.171a3.525,3.525,0,1,1,0-4.986A3.528,3.528,0,0,1,71.034,155.751Z" transform="translate(-23 -123.375)"/></g><g transform="translate(40.236)"><g transform="translate(0)"><path class="a" d="M196.407,37.345l-21.37-21.384a1.062,1.062,0,0,0-1.494,0l-.317.317L157.25.3A1.048,1.048,0,0,0,156.5,0a1.071,1.071,0,0,0-.754.3,8.209,8.209,0,0,0,0,11.611l6.229,6.229a1.058,1.058,0,0,0,1.27.172,4.826,4.826,0,0,1,5.422.5l1.1.912-.119.119a1.05,1.05,0,0,0,0,1.494l21.384,21.384a3.8,3.8,0,0,0,5.369.013l.013-.013A3.815,3.815,0,0,0,196.407,37.345ZM171.281,18.223l-1.256-1.045a7,7,0,0,0-7.075-1.071l-5.7-5.7a6.1,6.1,0,0,1-.688-7.8l15.168,15.168Zm23.632,23.01a1.676,1.676,0,0,1-2.38,0l-.013-.013-20.63-20.63.172-.172.026-.026,1.865-1.878.317-.317,20.63,20.63A1.7,1.7,0,0,1,194.913,41.233Z" transform="translate(-153.337)"/></g></g></g></svg>