<svg xmlns="http://www.w3.org/2000/svg" width="34.98" height="22.127" viewBox="0 0 34.98 22.127"><defs><style>.a{fill:#fff;}</style></defs><g transform="translate(0 -94.062)"><g transform="translate(0 94.062)"><g transform="translate(0 0)"><path class="a" d="M32.531,103.442l-.906-3.623a.548.548,0,0,0,.433-.536V98.7a2.3,2.3,0,0,0-2.3-2.3H25.632V95.194A1.133,1.133,0,0,0,24.5,94.062H3.469a1.133,1.133,0,0,0-1.132,1.132v9.932a.548.548,0,1,0,1.1,0V95.194a.036.036,0,0,1,.036-.036H24.5a.036.036,0,0,1,.036.036v9.932a.548.548,0,1,0,1.1,0V104.5H32.1a1.792,1.792,0,0,1,1.7,1.241H32.1a.548.548,0,0,0-.548.548v1.168a1.718,1.718,0,0,0,1.716,1.716h.621v2.41H32.452a3.468,3.468,0,0,0-6.556,0h-.264v-4.126a.548.548,0,1,0-1.1,0v4.126H13.173a3.468,3.468,0,0,0-6.556,0H3.469a.036.036,0,0,1-.036-.036v-1.2H5.806a.548.548,0,0,0,0-1.1H.548a.548.548,0,0,0,0,1.1H2.337v1.2a1.133,1.133,0,0,0,1.132,1.132H6.427c0,.012,0,.024,0,.036a3.469,3.469,0,1,0,6.937,0c0-.012,0-.024,0-.036H25.706c0,.012,0,.024,0,.036a3.469,3.469,0,1,0,6.938,0c0-.012,0-.024,0-.036h1.79a.548.548,0,0,0,.548-.548v-5.842A2.889,2.889,0,0,0,32.531,103.442Zm-6.9-5.948h4.126a1.206,1.206,0,0,1,1.2,1.2v.036H25.632Zm0,5.915V99.831H30.5l.895,3.578ZM9.9,115.094a2.373,2.373,0,1,1,2.373-2.373A2.376,2.376,0,0,1,9.9,115.094Zm19.279,0a2.373,2.373,0,1,1,2.373-2.373A2.376,2.376,0,0,1,29.174,115.094Zm4.71-7.011h-.621a.621.621,0,0,1-.621-.621v-.621h1.241v1.242Z" transform="translate(0 -94.062)"/></g></g><g transform="translate(8.763 111.588)"><g transform="translate(0 0)"><path class="a" d="M129.4,350.6a1.132,1.132,0,1,0,1.132,1.132A1.133,1.133,0,0,0,129.4,350.6Z" transform="translate(-128.267 -350.597)"/></g></g><g transform="translate(28.042 111.588)"><g transform="translate(0 0)"><path class="a" d="M411.587,350.6a1.132,1.132,0,1,0,1.132,1.132A1.133,1.133,0,0,0,411.587,350.6Z" transform="translate(-410.455 -350.597)"/></g></g><g transform="translate(14.021 109.252)"><path class="a" d="M213.954,316.393h-8.179a.548.548,0,0,0,0,1.1h8.179a.548.548,0,0,0,0-1.1Z" transform="translate(-205.227 -316.393)"/></g><g transform="translate(1.168 106.915)"><path class="a" d="M24.66,282.188H17.65a.548.548,0,0,0,0,1.1H24.66a.548.548,0,0,0,0-1.1Z" transform="translate(-17.102 -282.188)"/></g><g transform="translate(9.932 99.32)"><g transform="translate(0 0)"><path class="a" d="M154.484,171.183a.548.548,0,0,0-.775,0l-4.871,4.871L146.3,173.52a.548.548,0,0,0-.775.775l2.921,2.921a.548.548,0,0,0,.774,0l5.258-5.258A.548.548,0,0,0,154.484,171.183Z" transform="translate(-145.37 -171.023)"/></g></g></g></svg>