<svg xmlns="http://www.w3.org/2000/svg" width="30.387" height="35.684" viewBox="0 0 30.387 35.684"><defs><style>.a{fill:#fff;}</style></defs><g transform="translate(0 0)"><path class="a" d="M53.2,35.685a.7.7,0,0,1-.142-.015l-.014,0A18.9,18.9,0,0,1,38,17.165V14.5a.7.7,0,1,1,1.394,0v2.668A17.579,17.579,0,0,0,53.2,34.275,17.579,17.579,0,0,0,66.994,17.169V5.3l-13.8-3.881L39.394,5.3V8.225a.7.7,0,0,1-1.394,0V4.775a.7.7,0,0,1,.508-.671L53,.027a.7.7,0,0,1,.377,0L67.879,4.1a.7.7,0,0,1,.508.671V17.169a18.9,18.9,0,0,1-15.042,18.5A.7.7,0,0,1,53.2,35.685Z" transform="translate(-38 0)"/></g><g transform="translate(3.345 3.475)"><g transform="translate(0)"><path class="a" d="M97.856,78.638a.7.7,0,0,1-.174-.022A15.619,15.619,0,0,1,86,63.552V53.7a.7.7,0,0,1,.508-.671L97.66,49.889a.7.7,0,0,1,.377,0l11.151,3.136a.7.7,0,0,1,.508.671v9.86a15.621,15.621,0,0,1-11.666,15.06A.7.7,0,0,1,97.856,78.638ZM87.394,54.224v9.328A14.158,14.158,0,0,0,97.856,77.22,14.161,14.161,0,0,0,108.3,63.556V54.224l-10.454-2.94Z" transform="translate(-86 -49.862)"/></g></g><g transform="translate(10.594 12.262)"><path class="a" d="M196.133,185.13h-3.067a.7.7,0,0,1-.7-.7V182.76H190.7a.7.7,0,0,1-.7-.7V179a.7.7,0,0,1,.7-.7h1.673v-1.673a.7.7,0,0,1,.7-.7h3.067a.7.7,0,0,1,.7.7V178.3H198.5a.7.7,0,0,1,.7.7v3.067a.7.7,0,0,1-.7.7H196.83v1.673A.7.7,0,0,1,196.133,185.13Zm-2.37-1.394h1.673v-1.673a.7.7,0,0,1,.7-.7h1.673v-1.673h-1.673a.7.7,0,0,1-.7-.7v-1.673h-1.673V179a.7.7,0,0,1-.7.7h-1.673v1.673h1.673a.7.7,0,0,1,.7.7Z" transform="translate(-190 -175.93)"/></g><g transform="translate(0 10.663)"><path class="a" d="M38.7,154.394a.7.7,0,1,1,.493-.2A.7.7,0,0,1,38.7,154.394Z" transform="translate(-38 -153)"/></g><g transform="translate(6.853 8.521)"><path class="a" d="M144.673,138.944a8.34,8.34,0,1,1,8.34-8.34A8.35,8.35,0,0,1,144.673,138.944Zm0-15.287a6.946,6.946,0,1,0,6.946,6.946,6.954,6.954,0,0,0-6.946-6.946Z" transform="translate(-136.333 -122.263)"/></g></svg>